<?xml version="1.0" standalone="no"?><!DOCTYPE svg PUBLIC "-//W3C//DTD SVG 1.1//EN" "http://www.w3.org/Graphics/SVG/1.1/DTD/svg11.dtd"><svg t="1563878079280" class="icon" viewBox="0 0 1024 1024" version="1.1" xmlns="http://www.w3.org/2000/svg" p-id="9537" width="32" height="32" xmlns:xlink="http://www.w3.org/1999/xlink"><defs><style type="text/css"></style></defs><path d="M289.28 734.72H229.376c-16.384 0-29.696 13.312-29.696 29.696v118.784c0 16.384 13.312 29.696 29.696 29.696h59.392c16.384 0 29.696-13.312 29.696-29.696v-118.784c0.512-16.384-12.8-29.696-29.184-29.696z m207.872-148.48H437.76c-16.384 0-29.696 13.312-29.696 29.696v267.776c0 16.384 13.312 29.696 29.696 29.696h59.392c16.384 0 29.696-13.312 29.696-29.696v-267.776c0-16.384-13.312-29.696-29.696-29.696z m207.872-237.568h-59.392c-16.384 0-29.696 13.312-29.696 29.696v505.344c0 16.384 13.312 29.696 29.696 29.696h59.392c16.384 0 29.696-13.312 29.696-29.696V378.368c0-16.384-13.312-29.696-29.696-29.696z m238.08-238.08h-59.392c-16.384 0-29.696 13.312-29.696 29.696v743.424c0 16.384 13.312 29.696 29.696 29.696h59.392c16.384 0 29.696-13.312 29.696-29.696V140.288c0-16.384-13.312-29.696-29.696-29.696zM219.136 464.384V407.552h38.4v-43.52h-38.4V199.68H161.792L51.2 356.864v50.688h110.592v56.832h57.344zM95.744 364.544l66.048-94.208v94.208H95.744zM465.92 464.384c18.944 0 37.888-2.56 56.32-8.192V326.144H419.328v43.52h49.152v54.784c-2.56 0.512-3.584 0.512-2.56-0.512-18.432 3.584-34.304 5.632-48.128 5.632-46.592-1.024-70.144-32.256-71.168-93.696 1.024-62.464 24.576-94.208 71.168-95.232 33.792 0 50.688 14.336 50.688 43.52h57.344c1.024-55.808-38.4-83.968-117.76-83.968-77.824 5.632-117.248 50.688-119.296 135.68 2.048 82.944 41.472 126.464 119.296 131.584 24.064 0 43.008-1.024 57.856-3.072z" fill="#2C2C2C" p-id="9538"></path></svg>