<?xml version="1.0" standalone="no"?><!DOCTYPE svg PUBLIC "-//W3C//DTD SVG 1.1//EN" "http://www.w3.org/Graphics/SVG/1.1/DTD/svg11.dtd"><svg t="1563868042317" class="icon" viewBox="0 0 1024 1024" version="1.1" xmlns="http://www.w3.org/2000/svg" p-id="15460" xmlns:xlink="http://www.w3.org/1999/xlink" width="32" height="32"><defs><style type="text/css"></style></defs><path d="M166.632727 891.112727c-9.774545 0-19.549091-2.56-28.16-7.912727-13.730909-8.610909-22.109091-23.04-22.109091-38.632727V180.596364c0-15.592727 8.378182-30.021818 22.109091-38.632728 15.592727-9.774545 35.607273-10.705455 52.130909-2.327272l333.730909 165.934545c11.403636 5.818182 16.290909 19.781818 10.472728 31.185455-5.818182 11.403636-19.781818 16.290909-31.185455 10.472727L169.890909 181.294545c-3.258182-1.629091-6.749091 0-7.214545 0.698182L162.909091 844.567273c0.232727-0.465455 1.629091 0 3.258182 0 1.163636 0 2.327273-0.232727 3.490909-0.698182L835.490909 512.465455l-224.116364-111.709091c-11.403636-5.818182-16.290909-19.781818-10.472727-31.185455 5.818182-11.403636 19.781818-16.290909 31.185455-10.472727l225.745454 112.407273c16.290909 8.145455 26.298182 23.738182 26.298182 40.96s-10.007273 32.814545-26.298182 40.96L190.603636 885.527273c-7.68 3.723636-15.825455 5.585455-23.970909 5.585454z m671.650909-377.250909h0.232728-0.232728z" fill="#2c2c2c" p-id="15461"></path></svg>