<?xml version="1.0" standalone="no"?><!DOCTYPE svg PUBLIC "-//W3C//DTD SVG 1.1//EN" "http://www.w3.org/Graphics/SVG/1.1/DTD/svg11.dtd"><svg t="1563867978362" class="icon" viewBox="0 0 1024 1024" version="1.1" xmlns="http://www.w3.org/2000/svg" p-id="13223" xmlns:xlink="http://www.w3.org/1999/xlink" width="32" height="32"><defs><style type="text/css"></style></defs><path d="M512 972.8c-233.31328 0-363.52-51.1488-363.52-136.98048 0-49.4592 75.45856-92.77952 179.91168-116.86912L348.16 757.76c-89.00096 15.39584-148.48 45.5936-148.48 76.8 0 48.1536 154.28608 87.04 312.32 87.04s312.32-38.8864 312.32-87.04c0-31.2064-54.35904-61.40416-143.36-76.8l14.65856-38.8096c104.448 24.0896 179.90144 67.40992 179.90144 116.86912C875.52 919.6288 737.90976 972.8 512 972.8z m241.75616-418.74432c-8.48384 9.15968-209.24416 241.664-209.24416 241.664-8.41728 10.17856-17.63328 17.27488-27.60192 17.27488s-17.50528-7.94112-25.14944-17.27488c0 0-226.4064-246.33856-230.24128-251.68384s-9.088-12.15488-13.312-19.16928c-29.81888-47.616-49.59744-102.10304-49.59744-162.304a313.39008 313.39008 0 0 1 626.7648 0 307.32288 307.32288 0 0 1-50.13504 168.30976 199.30624 199.30624 0 0 1-21.504 23.18336zM512 103.86944c-141.824 0-261.89312 119.33696-261.89312 260.23424a214.28224 214.28224 0 0 0 38.74816 122.15296c7.72608 12.17024 31.90272 40.55552 31.90272 40.55552l198.36928 219.0336 181.20192-213.09952s9.28768-10.9568 20.38784-26.94656c28.36992-40.82176 53.16608-85.504 53.16608-141.696 0-140.89728-120.07424-260.23424-261.88288-260.23424zM512 476.16a112.64 112.64 0 1 1 112.64-112.64 112.64 112.64 0 0 1-112.64 112.64z m0-175.87712a62.27456 62.27456 0 1 0 62.67392 62.2848A62.464 62.464 0 0 0 512 300.27776z m0 0" p-id="13224" fill="#2c2c2c"></path></svg>